<?xml version="1.0" encoding="UTF-8"?><svg id="uuid-c210026b-c2ba-4b34-84bb-94c714179a9d" xmlns="http://www.w3.org/2000/svg" width="884.52" height="750.01" viewBox="0 0 884.52 750.01"><g id="uuid-f0295643-dc7e-4b5f-abea-2812a4be37a4"><g id="uuid-9392affc-dbab-4713-8bd7-1d61f4160785"><path d="m232.92,49.29c-4.46,32.95-41.33,81.55-24.23,84.35-15.54,16.7-24.19,52.93-15.76,71.66-5.75,18.64-16.71,37-22.17,55.42,23.86,3.47,28.43-15.16,34.8-30.93,10.27-17.41,9.61-46.98,26.46-57.9,15.21,16.73,40.31,2.58,59.6,7.02,51.07,10.9,88.78,18.39,141.22,13.51-7.48-13.46-13.62-23.28-18.36-33.72-1.27-17.41,11.18-39.28,23.58-15.97,20.04,21.3,54.36,22.15,67.09,51.41,22.48,7.97,67.51,44.37,80.84,13.04,2.74-28.75-21.82-70.27,26.5-47.26-.88-4.46,3.6-26.87,16.6-18.33-5.26,21.01-35.2,136.88,14.92,94.61,3.91-23.05,12.75-48.11,8.47-71.35-6.96-16.37,5.75-18.27,15.66-21.54,15.83,4.23,6,51.81-4.22,13.36,7.7,29.28,8.94,49.71,2.45,78.19,25.98,37.79,33.13-53.97,44.79-71.99,16.9-35.84,36.02-47.25,20.3,3.91-11.21,31.51,14.65-1.32,31.21,2.84,21.27,5.17,47.53,15.44,64.62,30.17-35.6-5.62,11.94,30.88-14.95,19.75-28.85-22.28-14.2-44.58-39.51-5.33-3.82-12.36-5.63-13.35-18.86-10.03,7.75,15.56,27.28,23.76,41.89,31.56,61.52,9.41,36.57,198.28,81.74,99.42,28.62-23.07-50.73,123.61-54.8,138.87,16.97-8.5,40.27-52.45,61.71-40.62-20.13,24.6-54.66,42.18-64.18,72.99-3.16-44.55-20.94,17.64-33.78,32.45-14.25,34.01-40.51,62.42-37.25,100.73-20.39,33-40.31,65.94-35.05,106.87-16.99,22.38-4.24-67.11-6.2-81.17,9.96-23.58,23.34-41.23,8.41-66.91-18.43-78.57-38.15-37.84-44.15,17.25-19.97,9.12,1.77-33.32.47-43.78-4.05-20.13-7.08-40.86-2.21-61.74,7.69-33.91,13.21-73.8-19.21-93.99,17.17,47.32-21.09,91.12,5.46,136.37.27,16.19-16.73,41.45-17.51,9.77-34.27.46-9.05-46.18-27.32-67.4-22.33,190.68-20.99,78.48-75.47,40.43-2.5,26.91-19.84,45.14-31.85,67.56-3.32,7.33-6.94,42.97-15.95,25.82.04-45.74-20.21-165.2-30.26-51.25-3.46,14.74-.42,34.27-8.63,46.56-13.51-11.98-3.38,30.25-6.56,42.53-20.3,24.67-16.55-94.14-37.76-99.35-20.78,28.13-25.15,9.24-32.45-9.78-.26,17.51,15.49,58.23-7.18,62.41-23.64-34.78.02-85.08-11.15-126.11-22.9,46.08-18.83,105.35-13.51,156.06-1.9,11.11,16.9,53.35.77,44.97-18.82-60.28-19.49-169.8-105.85-155.36-100.97-12.87-50.6,44.36-69.85,122.82-25.65,27.75-44.06-91.2-58.39-111.4-6.88-4.74-8.81,24.97-15.93,30.05-6.36,11.06-23.77,15.44-27.08,28.64-3.42,10.3,3.76,28.29-6.02,34.16-12.88-10.98,3.76-39.31-15.82-46.12-51.46-1.03,7.76-124.48-34.34-57.4-29.65,18.21,24.81-91.35,38.4-96.77,7.63-15.62-2.13-42.09-6.58-58.76-6.5-16.78,4.24-22.69,13.79-32.87,28.16-29.78,36.02-71.65,45.17-110.34-6.83-14.71-12.4-17.83,10.5-15.6,2.92,17.86,15.4,36.08,23.29,52.86,20.14-22.94,19.3-78.3,24.48-111.9,3.58-39.84,36.28-72.57,18.62-115.05-5.77-14.72,4.3-37.53-19.82-44.05-4.31-4.23,3.18-8.69,6.17-7.34,10.92,11.31,20.61,23.92,32.29,34.31,10.2,7.05,87.33,10.83,37.9,14.74Zm162.24,405.82c-11.13-24.78-21.4,2.37-.03.03,0,30.82,0,61.65,0,92.47,30.06-54.95,28.33-53.41.03-92.5Zm314.06-170.15c-14.25,39.05-12.33,11.53,6.68,55.05,18.61,33.72,35.69-55.82,23.74-61.65-52.44,14.3-42.19-11.37.71-23.16-34.76-6.47-79,67.63-31.14,29.76Zm-91.44,188.48c23.92-28.85,16.74-94.84,33.75-135.28,4.39-23.17,22.26-49.24,16.92-72.62-6.18-15.48-39.41-13.86-46.59-6.48,2.63,18.83,7.28,37.38,11.58,55.97-3.62,22.43-38.32-47.87-50.48-60.69-13.41,1.92-20.36,27.9-27.54,34.08,4.1,13.67,24.08,31.07,18.15,43.16-14.81,1.13-6.35-19.9-15.58-26.29-11.59-7.13-63-14.95-61.78,4.04,16.68,7.73,57.91,12.4,45.37,37.02-1.54,2.66-5.11,3.63-5.79.1,3.51-34.39-71.13-35.23-4.28,23.8-1.11-58.57,19.86,50.05,15.86,65.86,19.12-11.96,30.05-94.71,39.38-79.15,12.8,24.71-46.81,102.25-6.57,76.87,20.12-2.08,10.44-17.29,7.52-27.56,19.6-31.28,20.96,11.05,18.81,30.37,21.23-23.46,7.73,22.4,11.28,36.8Zm-460.28-21.75c-3.78,44.36,25.78,24.65,7.35,36.22-33.81,40.35,131.09-13.16,92.21,19.52-61.16,22.02,38.14,4.88,42.97,48.6-8.41-25.45-15.01-50.55-23.35-75.06-.93-16.87-41.07-47.44-12.16-46.31-3.99-18.31-3.63-15.67,12.56-17.91,14.14-1.95,6.87,4.66,9.89,10.28,47.67,82.68,58.38,43.99,30.32-18.09,14.89-16.07,7.24-33.37,2.01-49.68-11.84-36.9-13.79-38.18-38.15-26.6-26.02,8.86-20.06,13.17-29.46,34.19-9.87-10.42-20.24-7.61-31.77-1.01-7.16,3.41-20,5.51-4.69,16.1,20.82,66,58.67-31.18,93.8-30.42-47.7,56.78-68.21,104.92-151.54,100.18Zm321.87,51.57c17.85-33.27,17.84-75.09,40.2-106.24,30.91,62.47,3-52.37-27.54-62.62-24-11.63-31.39-4.85-2.13-21.92-11.37-12.61-36.18,3.34-51.35,5.6-25.76,31.39-37.21,56.07-28.84,98.12-9.18-18.6-16.35-30.06-8.84-2.69,13.53,57.21,24.91,76.48,19.82,1.47,18.66-15.65,25.03,45.88,36.44,10.43,11.75,22.99,6.57,52.75,22.25,77.85Zm311.13-131.2c19.37,11.77,18.11,51.12,29.35,54.6,36.45-51.41,24.09-152.55-55.24-147.93-28.78,8.77-27.26,89.77-12.9,113.25,2.13,17.59,13.69,17.5,28.28,17.89-13.4-25.08.06-51.87,5.02-77.5,18.61-22.26,5.33,34.63,5.49,39.68Zm-738.29,4.64c-15.44,34.11,35.89,81.72,73.64,57.86,33.37-5.2-4.15-111.2,31.69-77.51,3.92,27.07-5.67,73.84,25.34,52.98,23.71,11.45,3.6-43.31,5.55-57.43-5.01-17.13,8.65-8.43,7.86,4.02,4.09,19.32,31.87-6.38,47.49-9.55-24.66,1.14-54.91-25.48-68.64-1.52-14.57,2.73-6.22-18.36-22.29-17.88-25.75,6.46-34.54,77.3-76.45,61.48,20.27,8.08,9.84,22.21,8.74,33.27-8.01,16.62-9.47-32.83-16.91-40.09,3.7-35.62.77-39.82-16.01-5.63Zm720.87,63.51c5.2,8.08,7,14.41,6.63,23.51-8.38-14.77-21.95-21.88-31.76-7.2-1.86,53.49-7.15,132.93-42.07,38.09-24.39,39.18,15.76,75.2,24.39,112.72,18.62-19.19,23.95-53.14,37.59-77.5,8.57-27.64,44.13-70.71,5.23-89.62Zm-370.39-116.28c-6.71-14.04-2.09-19.63,14.45-20.79,8.99-6.51,19.68-17.28,31.26-21.84,6.51,1.9,20.23,9.65,14.14-3.22-28.25-98.76-53.11-48.36-84.47,15.76,37.98-27.16,1.58,39.93,24.62,30.09Zm314.25,33.47c-41.51-82.95-45.81-18.54-54.31,34.65,13.15.77,41.32-18.63,43.39-4.22,2.9,31.93,15.79-14.5,10.92-30.43Zm-368.45,121.51c-7.95,23.63,14.89-5.63,13.58-16.73-1.95-48.44,2.72-95.46,11.52-142.4-48.09,25.27-16.82,111.11-25.1,159.13Zm16.48-187.12c14.14-3.02,13.78-35.91,22.95-48.91,30.63-20.76-32.89-.75-43.19-9.79,4.99-6.98,21.79-3.09,21.23-10.81-18.68-1.19-34.94-8.65-22.72,15.56,2,22.98,1.62,46.48,3.03,69.62,15.19,38.61,12.69-46.53,10.98-61.51,18.97,2.55,6.13,32.41,7.72,45.83ZM54.45,488.1c-18.02,11.52-1.92,63.41-6.65,88.61,11.93,13.77,24.27-14.19,34.12-20.83-1.66-22.81-36.36-36.75-27.47-67.79ZM487.99,203.82c-13.28,9.83-3.08,67.05,6.33,80.59,46.75-10.78,5.1-52.99-6.33-80.59Zm-363.4,115.86c-32.26-17.83,28.89-.85-16.65-49.06-3.11,39.2-21.2,143.61,16.65,49.06Zm173.01-72.97c7.11,8.5,23.91,62.63,28.97,45.28-5.43-30.41,7.33-69.41-28.51-83.34-20.88,16.43,51.37,36.04-.47,38.06Zm418.27,260.44c13.86-10.99,2.1-45.76,5.22-64.89-6.4-15.16-39.87-25.83-31.99.51,22.04,14,21.75,41.3,26.77,64.38Zm18.47-261.53c12.25,8.88,18.6-10.39,5.86-20.44-14.12-14.81-19.42-14.88-25.64,4.36-27.65,34.01-10.31,30.16,19.78,16.09Zm-405.59,106.49c32.26.21-67.17-159.12-46.28-87,16.2,28.76,38.98,54.04,46.28,87Zm96.43,180.52c-14.53,8.61-15.79,46.72,8.34,44.5,1.38-19.18.28-96.98-8.34-44.5Zm-312.78-3.47c13.23-19.53,33.62-85.41.79-66.25-1.38,20.23-.79,40.59-.79,66.25Zm182.91-42.96c-7.81,9.4,13.73,68.06,31.95,69.09.49-18.54-19.85-51.61-31.95-69.09Zm-65.89-243.49c-9.88-.53-25.4,33.7-19.52,42.53,26.08,21.8,15.1-26.07,19.52-42.53Zm-136.88,289.15c-1.4-13.61-13.81-52.4-27.12-34.3,6.41,8.9,13.57,52.39,27.12,34.3Zm740.14-244.78c-20.55-27.32-24.19-38.68-56.82-20.44,19.62,7.06,34.47,12.4,56.82,20.44ZM134.18,607.02c8.97-14.07-27.84-64.05,11.24-59.85-38.58-51.66-19.91,36.56-11.24,59.85Zm-51.22-148.9c-32.53,6.18,7.32,21.73,18.54,35.13,0-11.11.15-20.28-.1-29.44-2.54-18.6-15.26,13.01-18.44-5.69Zm166.83-212.38c2.22,8.7-15.98,46.22-.59,47.88,21.05-15.35,12-33.44.59-47.88Zm.9,60.16c18.13,13.63,46.86-7.09,23.66-25.89-10.57,1.56-15.45,18.24-23.66,25.89Zm276.29-74.88c-14.83,16.09,1.99,24.22,6.22,39.97,23.26-15.47,6.01-23.03-6.22-39.97Zm-74.05-16.14c17.74-24.23,1.63-20.55-13.31-32.03-7.18,7.13,7.76,17.7,13.31,32.03Zm-292.51,92.83c15.02,3.32,16.14-29.74,23.58-40.31-22.13,3.28-16.95,23.12-23.58,40.31Zm36.98,17.26c30.22-9.67-5.89-40.23-8.51-5.91-.27.84,4.7,3.33,8.51,5.91Zm393.73,114.05c-13.41,9.3-18.96,42.45-10.65,52.74,3.41-16.88,6.89-34.09,10.65-52.74Zm-81.03,58.99c18.13.33,7.71-43.3,13.75-59.41-9.96,12-7.94,41.57-13.75,59.41Zm-312.17-102.23c4.41,10.92,11.33,15.22,16.29,4.16-6.03-12.95-10.19-24.79-16.29-4.16Zm340.36,37.17c-15.74-.19-3.22,37.05-7.01,50.9,6.6-11.58,3.65-35.3,7.01-50.9ZM174.99,138.28c-13.67-4.06-6.53,22.64-10.22,32.06,9.65-.81,6.11-23.24,10.22-32.06Zm226.01,205.81c-1.34,1.13,6.64-10.78.88-8.62-14.58,21.98-17.58,48.98-.88,8.62Zm-151.43-10.59c6.59,7.91,16.56-4.33,24.59-6.33-10.46-2.81-18.31-4.05-24.59,6.33Zm335.43,246.65c4.43-9.17,4.46-42.04,0-51.08,0,17.03,0,34.05,0,51.08Zm144.65-224.43c-7.94,5.09,6.97,24.1,7.88,33.92,8.46-4.86-6.96-24.11-7.88-33.92Zm-333.04,87.82c4.08-8.45-5.42-25.3-6.12-36.49-11.56,3.86,5.61,25.93,6.12,36.49Zm360.54-5.7c-15.22-1.52-20.03.2-16.42,14.95,4.51-4.11,9.44-8.6,16.42-14.95Zm-195.11,73.66c-1.24-9.03-2.18-15.92-3.96-28.83-2.17,16.97-13.84,24.12,3.96,28.83Zm-113.09-296.62c6.85,23.43,11.22,25.76,8.19.74-.09-.58-4.79-.47-8.19-.74Zm275.68,169.21c-8.58,6.04,7.99,12.64,11.68,18.64,5.95-5.47-8.73-12.81-11.68-18.64Zm-578.64,218.16c7.19-7.65-1.55-30.78-.07-43.59-5.78,9.18,1.35,30.42.07,43.59Zm-1.15-69.36c8.23-8.59-16.79-7.67-6.54-20.15-16.52,3.42,2.78,13.45,6.54,20.15Zm458.52-293.51c-.53-8.23-.96-14.98-1.6-25.04-4.2,13.19-13.85,19.77,1.6,25.04Zm25.71,245.97c8.5-.87,6.98-22.83,11.4-31.23-8.09,1.87-6.96,22.7-11.4,31.23Zm-32.66-287.09c3.27-4.51,7.68-35.33,0-36.75,0,12.25,0,24.5,0,36.75Zm214.16,251.61c-14.98-10.59-10.27.16-10.94,13.78,4.54-5.72,7.59-9.56,10.94-13.78Zm-647.05,93.81c5.07-7.76,17.64-14.97,0-17.71,0,7.67,0,13.82,0,17.71ZM505.16,216.45c-2.71,4.82,7.49,8.67,11.25,14.02,6.77-10.23-5.06-9.58-11.25-14.02Zm-262.49-.61c6.8-1.94,18.66.74,21.77-3.85-6.11,1.25-28.91-6.65-21.77,3.85Zm201.93,279.56c-8.08.1-2.45,19.22-4.76,26.43,5.15-4.02,2.45-18.79,4.76-26.43Zm-44.64-270.54c.89-7.68-13.32-2.21-18.86-3.76.74,5.73,13.6,2,18.86,3.76Zm45.87-61.42c-11.82-6.32-15.29-15.03-24.89-12.83,3.72,7.91,13.42,6.68,24.89,12.83ZM21.27,505.57c6.14,1.86,8.77-14.42,13.2-19.31-6.5-2.46-8.78,14.37-13.2,19.31ZM185.03,42.03c8.01-2.35-3.62-12.32-4.89-17.89-5.45,2.82,4.08,12.59,4.89,17.89Zm531.51,634.53c6.36,1.17,1.57-12.95,2.97-17.85-4.23,1.11-1.45,12.99-2.97,17.85Zm-277.31-226.16c.73,14.19,1.28,25.09,1.84,35.99,7.41-4.36-2.28-23.24-1.84-35.99Zm319.79-210.52c-1.27,6.15,11.04,2.79,15.48,4.51,1.71-6.91-10.79-2.9-15.48-4.51Z" stroke-width="0"/></g></g></svg>